<svg width="68" height="68" viewBox="0 0 68 68" fill="none" xmlns="http://www.w3.org/2000/svg">
<path d="M32.8765 48.5716C31.3308 48.5716 29.9129 48.3586 28.6227 47.9326C27.3325 47.4941 26.2467 46.8175 25.3653 45.9029C24.701 45.2013 24.2028 44.4119 23.8707 43.5349C23.5386 42.6454 23.3534 41.712 23.315 40.7347C23.3023 39.8075 23.4364 38.8867 23.7174 37.9721C23.9985 37.0449 24.4519 36.218 25.0779 35.4913C25.4867 34.9902 25.9529 34.5767 26.4766 34.2509C27.0004 33.9252 27.5369 33.6496 28.0862 33.424C27.0643 32.3967 26.285 31.457 25.7485 30.605C25.212 29.753 24.9437 28.7006 24.9437 27.4477C24.9437 26.1071 25.2759 24.8793 25.9401 23.7642C26.6172 22.6366 27.5561 21.7971 28.7568 21.2459C29.4083 20.9326 30.079 20.7134 30.7688 20.5881C31.4586 20.4628 32.142 20.4001 32.819 20.4001C33.8026 20.4001 34.7735 20.5254 35.7315 20.776C36.6896 21.0266 37.5135 21.4213 38.2033 21.96C38.6632 22.2983 39.072 22.6992 39.4297 23.1628C39.8001 23.6264 40.0939 24.1087 40.3111 24.6099L38.2033 25.3428C37.8968 24.6287 37.4049 24.0336 36.7279 23.5575C36.2042 23.1816 35.6102 22.9122 34.9459 22.7493C34.2817 22.5865 33.611 22.505 32.934 22.505C31.7588 22.505 30.6794 22.7368 29.6957 23.2004C28.891 23.6013 28.2778 24.1651 27.8563 24.8918C27.4475 25.6059 27.2431 26.4391 27.2431 27.3913C27.2431 28.2057 27.3708 28.8823 27.6263 29.421C27.8946 29.9472 28.3034 30.5298 28.8526 31.1688C29.1465 31.482 29.4658 31.7953 29.8107 32.1085C30.1684 32.4092 30.5261 32.7224 30.8837 33.0482L40.1961 41.5616C40.26 41.1857 40.3047 40.8224 40.3302 40.4716C40.3558 40.1208 40.3686 39.77 40.3686 39.4191L40.3302 35.247L42.5146 35.247V39.1372C42.5146 40.2398 42.4699 41.1043 42.3805 41.7307C42.3038 42.3572 42.2017 42.8709 42.0739 43.2718L45.6571 46.5419L44.1816 48.1017L41.02 45.17C40.6624 45.6836 40.1833 46.166 39.5829 46.6171C38.9953 47.0556 38.4077 47.4064 37.8201 47.6695C37.0792 48.0203 36.2808 48.2584 35.425 48.3836C34.5819 48.5089 33.7324 48.5716 32.8765 48.5716ZM32.8382 46.4479C33.6813 46.4479 34.435 46.3978 35.0992 46.2976C35.7762 46.1848 36.415 45.9655 37.0153 45.6398C37.7562 45.2138 38.2928 44.8317 38.6249 44.4934C38.957 44.1426 39.2125 43.8419 39.3913 43.5913L29.8682 35.0591C29.2806 35.2345 28.7185 35.4788 28.182 35.792C27.6583 36.0927 27.2048 36.4623 26.8216 36.9008C26.4 37.402 26.0934 37.9783 25.9018 38.6298C25.7102 39.2813 25.6208 39.9579 25.6336 40.6595C25.6463 41.3737 25.7677 42.0502 25.9976 42.6892C26.2276 43.3157 26.5661 43.8732 27.0132 44.3618C27.6646 45.076 28.5205 45.6022 29.5808 45.9405C30.6538 46.2788 31.7396 46.4479 32.8382 46.4479Z" fill="white"/>
<path d="M67.5 34C67.5 52.5015 52.5015 67.5 34 67.5C15.4985 67.5 0.5 52.5015 0.5 34C0.5 15.4985 15.4985 0.5 34 0.5C52.5015 0.5 67.5 15.4985 67.5 34Z" stroke="white"/>
</svg>
